:SAMPLES-PER-SECOND 30
:FULLY-SPECIFIED
:DEGREES
145
root  -5.187 38.6241 0.163305 177.317 37.8935 174.794
RightUpLeg  -13.4671 -15.9456 -12.1376
RightLeg  28.6221 -7.89907 -4.86766
RightFoot  -7.28639 -0.634851 16.4284
RightToes  -5.8209e-011 0 -3.6325e-017
Spine  13.8676 1.3001 -3.05274
Spine1  18.3688 2.35481 -3.62553
HEad  -22.6146 28.6719 -12.9948
LeftShoulder1  1.14588 -1.8267 -14.6131
LeftArm  8.58492 5.89877 -52.584
LeftForeArm  83.2736 -79.0867 -98.7442
LeftHand  -0.221526 3.77994 15.4606
RightShoulder  0.956869 0.813329 15.4627
RightArm  5.47863 1.24405 55.083
RightForeArm  68.4851 75.4413 123.589
RightHand  -1.26196 1.65062 -20.778
LeftUpLeg  -9.59798 -13.4225 3.90651
LeftLeg  23.0485 5.72875 3.01153
LeftFoot  -14.2914 -0.0501336 -5.23582
LeftToes  -3.91115e-011 -2.2622e-010 9.51032e-012
146
root  -4.9405 38.9398 0.186456 177.007 38.3773 174.807
RightUpLeg  -11.6304 -14.5724 -11.6911
RightLeg  25.7312 -9.19952 -5.01523
RightFoot  -5.96345 -0.800993 16.1047
RightToes  -5.8209e-011 0 -3.6325e-017
Spine  13.1975 0.845427 -2.38345
Spine1  18.1324 2.19135 -4.28688
HEad  -21.6595 30.0501 -12.3765
LeftShoulder1  1.20351 -2.1752 -14.2847
LeftArm  11.4065 3.97172 -54.8536
LeftForeArm  84.4147 -79.0381 -100.045
LeftHand  -0.154144 4.26076 14.9457
RightShoulder  0.901422 0.716302 14.5807
RightArm  9.82984 2.31986 56.6421
RightForeArm  78.6916 73.7731 132.101
RightHand  -0.995875 1.1305 -17.7889
LeftUpLeg  -8.17797 -7.63147 3.25673
LeftLeg  22.6625 8.06579 4.01718
LeftFoot  -13.4038 0.00384191 -4.23706
LeftToes  -3.91115e-011 -2.2622e-010 9.51032e-012
147
root  -4.805 39.3301 0.133664 177.328 37.8557 174.874
RightUpLeg  -10.1664 -14.6558 -11.5631
RightLeg  22.6759 -9.98752 -4.78123
RightFoot  -3.31212 -1.18215 16.3752
RightToes  -5.8209e-011 0 -3.6325e-017
Spine  12.3319 -0.0681232 -2.19107
Spine1  17.382 1.2355 -4.31756
HEad  -20.1714 31.5598 -11.4612
LeftShoulder1  1.23092 -2.47183 -13.6303
LeftArm  14.381 3.31024 -57.761
LeftForeArm  88.9429 -78.8091 -105.029
LeftHand  -0.313427 3.39489 17.4951
RightShoulder  0.861269 0.691557 13.663
RightArm  13.6608 3.2736 58.151
RightForeArm  86.9903 72.0366 138.376
RightHand  -0.831681 0.847305 -15.5566
LeftUpLeg  -7.49065 -3.87661 2.58231
LeftLeg  21.6832 5.82072 2.88474
LeftFoot  -11.1872 0.0844479 -6.23056
LeftToes  -3.91115e-011 -2.2622e-010 9.51032e-012
148
root  -4.75511 39.757 0.00134394 178.117 37.6789 175.123
RightUpLeg  -9.36116 -16.1898 -11.6708
RightLeg  19.7944 -8.65349 -3.57906
RightFoot  0.70592 -1.86768 17.5915
RightToes  -5.8209e-011 0 -3.6325e-017
Spine  11.0881 -0.792561 -2.18589
Spine1  16.6461 0.301637 -3.83524
HEad  -18.8458 32.6868 -10.8472
LeftShoulder1  1.25129 -2.64242 -13.3662
LeftArm  16.9293 3.7333 -60.3229
LeftForeArm  93.6714 -78.3796 -110.979
LeftHand  -0.674226 1.9327 22.4016
RightShoulder  0.832673 0.685751 12.9335
RightArm  16.0955 3.55319 59.1674
RightForeArm  94.1222 70.5483 142.656
RightHand  -0.743644 0.849138 -13.9324
LeftUpLeg  -6.8114 -1.87112 1.97894
LeftLeg  19.834 2.52011 1.34497
LeftFoot  -7.08662 0.399961 -9.54581
LeftToes  -3.91115e-011 -2.2622e-010 9.51032e-012
149
root  -4.73964 40.1642 -0.189591 178.92 38.848 175.476
RightUpLeg  -9.02107 -17.0889 -11.7967
RightLeg  17.2161 -6.66862 -2.05047
RightFoot  4.96775 -2.66943 18.7296
RightToes  -5.8209e-011 0 -3.6325e-017
Spine  9.76151 -0.89139 -2.09417
Spine1  16.0128 0.101244 -3.505
HEad  -17.8759 33.4016 -10.4974
LeftShoulder1  1.28253 -2.72618 -13.6196
LeftArm  18.3117 5.00871 -61.6447
LeftForeArm  98.8274 -77.7753 -117.128
LeftHand  -1.11347 0.642825 27.0703
RightShoulder  0.78632 0.500546 12.675
RightArm  16.6647 3.12683 59.6182
RightForeArm  99.6938 69.4922 145.305
RightHand  -0.728953 1.20335 -12.9499
LeftUpLeg  -5.58179 0.49078 1.66928
LeftLeg  17.1785 1.48736 0.816971
LeftFoot  -2.59356 0.864661 -11.176
LeftToes  -3.91115e-011 -2.2622e-010 9.51032e-012
150
root  -4.73569 40.4602 -0.394016 179.432 40.9849 175.662
RightUpLeg  -9.16547 -16.2895 -11.6878
RightLeg  15.3954 -5.81309 -1.32279
RightFoot  8.12832 -3.23833 19.0555
RightToes  -5.8209e-011 0 -3.6325e-017
Spine  8.76856 -0.55632 -2.14326
Spine1  15.1505 0.441863 -3.55154
HEad  -17.1312 34.2389 -10.2064
LeftShoulder1  1.26771 -2.61422 -13.7652
LeftArm  18.4024 6.99335 -61.7607
LeftForeArm  105.814 -77.0135 -123.491
LeftHand  -1.50772 -0.385381 29.9667
RightShoulder  0.723724 0.187287 12.6479
RightArm  15.8688 2.24716 59.7904
RightForeArm  102.474 68.6377 147.08
RightHand  -0.754487 1.58422 -12.6985
LeftUpLeg  -4.02812 2.8736 1.49558
LeftLeg  14.3672 3.41674 1.0773
LeftFoot  0.19988 1.07722 -10.6568
LeftToes  -3.91115e-011 -2.2622e-010 9.51032e-012
